#N canvas 404 308 450 300 10;
#X obj 61 15 inlet~;
#X obj 97 158 tanh~;
#X obj 65 246 outlet~;
#X obj 177 15 inlet;
#X obj 97 131 +~ 0;
#X obj 98 78 t f f;
#X obj 136 117 expr 1-abs($f1);
#X obj 108 185 *~ 1;
#X obj 97 211 -~ 0;
#X obj 98 52 clip 0 1;
#X connect 0 0 4 0;
#X connect 1 0 7 0;
#X connect 3 0 9 0;
#X connect 4 0 1 0;
#X connect 5 0 4 1;
#X connect 5 1 6 0;
#X connect 5 1 8 1;
#X connect 6 0 7 1;
#X connect 7 0 8 0;
#X connect 8 0 2 0;
#X connect 9 0 5 0;
