#N canvas 182 188 468 643 10;
#X obj 80 283 filtercoeff.mmb lowpass;
#X obj 254 299 filtercoeff.mmb highpass;
#X obj 285 -24 loadbang;
#N canvas 487 138 481 380 filter.gain 0;
#X obj 120 32 inlet;
#X obj 120 182 unpack f f f f f;
#X obj 168 241 * 1;
#X obj 198 241 * 1;
#X obj 228 241 * 1;
#X obj 146 149 list;
#X obj 120 293 pack f f f f f;
#X obj 120 325 outlet;
#X obj 310 32 inlet;
#X obj 282 73 t b b f;
#X obj 314 166 s \$0-redraw;
#X connect 0 0 5 1;
#X connect 0 0 1 0;
#X connect 1 0 6 0;
#X connect 1 1 6 1;
#X connect 1 2 2 0;
#X connect 1 3 3 0;
#X connect 1 4 4 0;
#X connect 2 0 6 2;
#X connect 3 0 6 3;
#X connect 4 0 6 4;
#X connect 5 0 1 0;
#X connect 6 0 7 0;
#X connect 8 0 9 0;
#X connect 9 0 10 0;
#X connect 9 1 5 0;
#X connect 9 2 4 1;
#X connect 9 2 3 1;
#X connect 9 2 2 1;
#X restore 80 310 pd filter.gain;
#N canvas 555 22 481 380 filter.gain 0;
#X obj 120 32 inlet;
#X obj 120 182 unpack f f f f f;
#X obj 168 241 * 1;
#X obj 198 241 * 1;
#X obj 228 241 * 1;
#X obj 146 149 list;
#X obj 120 293 pack f f f f f;
#X obj 120 325 outlet;
#X obj 310 32 inlet;
#X obj 282 73 t b b f;
#X obj 314 166 s \$0-redraw;
#X connect 0 0 5 1;
#X connect 0 0 1 0;
#X connect 1 0 6 0;
#X connect 1 1 6 1;
#X connect 1 2 2 0;
#X connect 1 3 3 0;
#X connect 1 4 4 0;
#X connect 2 0 6 2;
#X connect 3 0 6 3;
#X connect 4 0 6 4;
#X connect 5 0 1 0;
#X connect 6 0 7 0;
#X connect 8 0 9 0;
#X connect 9 0 10 0;
#X connect 9 1 5 0;
#X connect 9 2 4 1;
#X connect 9 2 3 1;
#X connect 9 2 2 1;
#X restore 254 326 pd filter.gain;
#X msg 95 254 320;
#X msg 267 264 1160;
#X msg 310 264 0.5;
#X floatatom 133 199 5 0 0 0 - - -;
#X floatatom 174 200 5 0 0 0 - - -;
#X obj 165 108 t b f;
#X msg 139 255 0.5;
#X obj 144 167 expr 0+($f1*0.87);
#X obj 133 143 expr 1-($f1*0.745);
#X obj 80 358 biquad~;
#X obj 254 358 biquad~;
#X obj 173 421 +~;
#X obj 33 -70 inlet~;
#X obj 165 -70 inlet;
#X obj 285 192 t b b;
#X obj 160 492 outlet~;
#X text 56 157 fade mapping;
#X text 269 454 inspired by .mmb;
#X connect 0 0 3 0;
#X connect 1 0 4 0;
#X connect 2 0 19 0;
#X connect 3 0 14 0;
#X connect 4 0 15 0;
#X connect 5 0 0 0;
#X connect 6 0 1 0;
#X connect 7 0 1 1;
#X connect 10 0 0 0;
#X connect 10 0 1 0;
#X connect 10 1 12 0;
#X connect 10 1 13 0;
#X connect 11 0 0 1;
#X connect 12 0 9 0;
#X connect 12 0 4 1;
#X connect 13 0 8 0;
#X connect 13 0 3 1;
#X connect 14 0 16 0;
#X connect 15 0 16 1;
#X connect 16 0 20 0;
#X connect 17 0 14 0;
#X connect 17 0 15 0;
#X connect 18 0 10 0;
#X connect 19 0 6 0;
#X connect 19 0 5 0;
#X connect 19 1 7 0;
#X connect 19 1 11 0;
