#N canvas 25 25 592 873 12;
#X obj 44 725 biquad~;
#X obj 137 209 f;
#X text 144 183 D;
#X obj 162 362 f;
#X obj 194 362 f;
#X obj 238 362 f;
#X text 243 336 Cz;
#X obj 270 362 f;
#X text 275 336 Cc;
#X obj 149 245 expr $f1*$f2;
#X obj 135 160 unpack f f f f f;
#X obj 145 122 t b l;
#X obj 142 276 expr ((1-$f1)*$f2)+$f3;
#X text 167 336 Rt;
#X text 199 336 Rb;
#X obj 132 415 expr 1/($f1*$f2*$f3*$f4);
#X obj 133 479 f 1;
#X obj 132 523 expr 1/($f1*$f2*$f3*$f4);
#X obj 133 587 f 1;
#X obj 131 681 bng 15 250 50 0 empty empty empty 17 7 0 10 -262144
-1 -1;
#X obj 132 447 expr (1/($f1*$f4))+(1/($f2*$f3))+(1/($f2*$f4));
#X obj 132 555 expr (1/($f1*$f4))+(1/($f2*$f3));
#X obj 106 307 t b b b b b;
#X msg 219 76 0.499855 100000 4700 1e-06 2.5e-10;
#X msg 220 5 100000 4700 1e-06 2.5e-10;
#X msg 220 33 add2 \$1 \$2 \$3 \$4;
#X msg 243 -22 set \$1;
#X obj 197 -50 t b b l;
#X obj 43 -50 inlet~;
#X obj 43 757 outlet~;
#X obj 146 -50 inlet;
#X text 110 -50 Dist;
#X obj 71 415 s \$0-b0;
#X obj 71 447 s \$0-b1;
#X obj 71 479 s \$0-b2;
#X obj 71 523 s \$0-a0;
#X obj 71 555 s \$0-a1;
#X obj 71 587 s \$0-a2;
#X obj 62 631 r \$0-b0;
#X obj 118 631 r \$0-b1;
#X obj 174 631 r \$0-b2;
#X obj 235 631 r \$0-a0;
#X obj 291 631 r \$0-a1;
#X obj 347 631 r \$0-a2;
#X obj 161 728 filterplot.mmb \$0-plot;
#N canvas 0 22 450 300 (subpatch) 0;
#X array \$0-plot 200 float 0;
#X coords 0 1 199 0 200 140 1;
#X restore 354 179 graph;
#X text 326 308 0db;
#X text 318 168 30db;
#X msg 427 677 dbrange \$1;
#X floatatom 427 652 5 0 0 0 - - -;
#X obj 437 607 loadbang;
#X msg 479 645 30;
#X obj 164 678 bilinear;
#X connect 0 0 29 0;
#X connect 1 0 9 0;
#X connect 1 0 12 0;
#X connect 3 0 15 0;
#X connect 3 0 17 0;
#X connect 3 0 20 0;
#X connect 3 0 21 0;
#X connect 4 0 15 1;
#X connect 4 0 17 1;
#X connect 4 0 20 1;
#X connect 4 0 21 1;
#X connect 5 0 15 2;
#X connect 5 0 17 2;
#X connect 5 0 20 2;
#X connect 5 0 21 2;
#X connect 7 0 15 3;
#X connect 7 0 17 3;
#X connect 7 0 20 3;
#X connect 7 0 21 3;
#X connect 9 0 3 1;
#X connect 10 0 1 0;
#X connect 10 1 9 1;
#X connect 10 1 12 1;
#X connect 10 2 12 2;
#X connect 10 3 5 1;
#X connect 10 4 7 1;
#X connect 11 0 22 0;
#X connect 11 1 10 0;
#X connect 12 0 4 1;
#X connect 15 0 32 0;
#X connect 16 0 34 0;
#X connect 17 0 35 0;
#X connect 18 0 37 0;
#X connect 19 0 52 0;
#X connect 20 0 33 0;
#X connect 21 0 36 0;
#X connect 22 0 52 0;
#X connect 22 1 3 0;
#X connect 22 1 20 0;
#X connect 22 1 18 0;
#X connect 22 1 16 0;
#X connect 22 2 4 0;
#X connect 22 3 5 0;
#X connect 22 4 7 0;
#X connect 23 0 11 0;
#X connect 24 0 25 0;
#X connect 25 0 23 0;
#X connect 26 0 23 0;
#X connect 27 0 23 0;
#X connect 27 1 24 0;
#X connect 27 2 26 0;
#X connect 28 0 0 0;
#X connect 30 0 27 0;
#X connect 38 0 52 1;
#X connect 39 0 52 2;
#X connect 40 0 52 3;
#X connect 41 0 52 4;
#X connect 42 0 52 5;
#X connect 43 0 52 6;
#X connect 48 0 44 1;
#X connect 49 0 48 0;
#X connect 50 0 49 0;
#X connect 50 0 51 0;
#X connect 51 0 48 0;
#X connect 52 0 0 0;
#X connect 52 0 44 0;
