#N canvas 0 22 1254 803 10;
#X obj 225 202 filtercoeff.mmb lowpass;
#X obj 199 370 filtercoeff.mmb highpass;
#N canvas 0 0 450 300 (subpatch) 0;
#X array \$0-lowpass 400 float 0;
#X coords 0 1 399 -1 200 150 1;
#X restore 822 26 graph;
#N canvas 0 22 450 300 (subpatch) 0;
#X array \$0-highpass 400 float 0;
#X coords 0 1 399 -1 200 150 1;
#X restore 822 198 graph;
#N canvas 0 22 450 300 (subpatch) 0;
#X array \$0-sum.amp 400 float 0;
#X coords 0 2 399 0 200 150 1;
#X restore 823 369 graph;
#X obj 225 298 filterplot.mmb \$0-lowpass;
#X obj 199 459 filterplot.mmb \$0-highpass;
#X msg 423 177 units 1;
#X obj 401 52 loadbang;
#N canvas 0 22 450 300 (subpatch) 0;
#X array \$0-sum.db 400 float 0;
#X coords 0 0 399 -1 200 180 1;
#X restore 822 556 graph;
#N canvas 275 22 906 709 amp.to.dB 0;
#X obj 88 39 inlet;
#X obj 88 139 until;
#X obj 88 107 t f b;
#X msg 103 172 0;
#X obj 88 199 f;
#X obj 118 199 + 1;
#X msg 88 78 400;
#X text 325 45 read [table \$0-sum.amp] \, convert each value to dB
\, and write to [table \$0-sum.db];
#X obj 90 239 t f f;
#X obj 146 595 tabwrite \$0-sum.db;
#X obj 87 317 tabread \$0-sum.amp;
#X obj 87 374 rmstodb;
#X obj 87 398 - 100;
#X text 131 397 100 dB should be 0 dB;
#X text 124 460 range +/- 24 dB. Change this to scale dB range;
#X obj 87 460 / 20;
#X obj 87 487 clip -20 20;
#X obj 59 522 == 0;
#X obj 59 560 gate 1;
#X obj 59 585 s \$0-left;
#X obj 275 560 gate 1;
#X obj 275 522 == 399;
#X obj 275 585 s \$0-right;
#X obj 118 649 min 1;
#X obj 137 685 s \$0-min;
#X msg 147 625 1;
#X obj 158 648 f 1;
#X connect 0 0 6 0;
#X connect 1 0 4 0;
#X connect 2 0 1 0;
#X connect 2 1 3 0;
#X connect 2 1 25 0;
#X connect 3 0 4 1;
#X connect 4 0 5 0;
#X connect 4 0 8 0;
#X connect 5 0 4 1;
#X connect 6 0 2 0;
#X connect 8 0 10 0;
#X connect 8 1 9 1;
#X connect 8 1 17 0;
#X connect 8 1 21 0;
#X connect 10 0 11 0;
#X connect 11 0 12 0;
#X connect 12 0 15 0;
#X connect 15 0 16 0;
#X connect 16 0 9 0;
#X connect 16 0 18 1;
#X connect 16 0 20 1;
#X connect 16 0 23 0;
#X connect 17 0 18 0;
#X connect 18 0 19 0;
#X connect 20 0 22 0;
#X connect 21 0 20 0;
#X connect 23 0 24 0;
#X connect 23 0 26 0;
#X connect 25 0 23 1;
#X connect 26 0 23 1;
#X restore 118 645 pd amp.to.dB;
#X text 1258 694 .mmb;
#X text 478 177 use raw amp;
#X text 206 645 <-- look inside;
#N canvas 555 22 481 380 filter.gain 0;
#X obj 120 32 inlet;
#X obj 120 182 unpack f f f f f;
#X obj 168 241 * 1;
#X obj 198 241 * 1;
#X obj 228 241 * 1;
#X obj 146 149 list;
#X obj 120 293 pack f f f f f;
#X obj 120 325 outlet;
#X obj 310 32 inlet;
#X obj 282 73 t b b f;
#X obj 314 166 s \$0-redraw;
#X connect 0 0 5 1;
#X connect 0 0 1 0;
#X connect 1 0 6 0;
#X connect 1 1 6 1;
#X connect 1 2 2 0;
#X connect 1 3 3 0;
#X connect 1 4 4 0;
#X connect 2 0 6 2;
#X connect 3 0 6 3;
#X connect 4 0 6 4;
#X connect 5 0 1 0;
#X connect 6 0 7 0;
#X connect 8 0 9 0;
#X connect 9 0 10 0;
#X connect 9 1 5 0;
#X connect 9 2 4 1;
#X connect 9 2 3 1;
#X connect 9 2 2 1;
#X restore 225 266 pd filter.gain;
#X obj 46 434 r \$0-redraw;
#N canvas 555 22 481 380 filter.gain 0;
#X obj 120 32 inlet;
#X obj 120 182 unpack f f f f f;
#X obj 168 241 * 1;
#X obj 198 241 * 1;
#X obj 228 241 * 1;
#X obj 146 149 list;
#X obj 120 293 pack f f f f f;
#X obj 120 325 outlet;
#X obj 310 32 inlet;
#X obj 282 73 t b b f;
#X obj 314 166 s \$0-redraw;
#X connect 0 0 5 1;
#X connect 0 0 1 0;
#X connect 1 0 6 0;
#X connect 1 1 6 1;
#X connect 1 2 2 0;
#X connect 1 3 3 0;
#X connect 1 4 4 0;
#X connect 2 0 6 2;
#X connect 3 0 6 3;
#X connect 4 0 6 4;
#X connect 5 0 1 0;
#X connect 6 0 7 0;
#X connect 8 0 9 0;
#X connect 9 0 10 0;
#X connect 9 1 5 0;
#X connect 9 2 4 1;
#X connect 9 2 3 1;
#X connect 9 2 2 1;
#X restore 199 426 pd filter.gain;
#X floatatom 281 395 5 0 0 0 - - -;
#X obj 397 686 table \$0-temp1 400;
#X obj 517 686 table \$0-temp2 400;
#X obj 118 513 tab_add_scalar \$0-lowpass \$0-temp1;
#X msg 118 488 1;
#X msg 118 538 1;
#X obj 118 563 tab_add_scalar \$0-highpass \$0-temp2;
#X obj 118 594 tab_add \$0-temp1 \$0-temp2 \$0-sum.amp;
#X text 353 528 [filterplot.mmb] writes to arrays with the default
y range of -1 to 1 \, regardless of the user-defined range set by [amprange(
or [dbrange( messages. In raw amp mode with default range of 0 to 2
\, an amp of 0 corresponds to y -1 \, and amp of 1 corresponds to y
0 \, etc. So the table values need to be raised by 1 and then summed
to get the correct raw amp values.;
#X text 480 410 y-range for this table is set to 0 to 2 so that it
draws correctly -->;
#X msg 227 139 320;
#X msg 203 323 1160;
#X obj 128 124 t b b b;
#X obj 145 95 bng 15 250 50 0 empty empty empty 17 7 0 10 -262144 -1
-1;
#X floatatom 304 235 5 0 0 0 - - -;
#X obj 739 606 r \$0-left;
#X floatatom 773 630 5 0 0 0 - - -;
#X obj 739 630 * 20;
#X floatatom 1031 633 5 0 0 0 - - -;
#X obj 1066 633 * 20;
#X obj 1031 609 r \$0-right;
#X floatatom 889 744 5 0 0 0 - - -;
#X obj 924 744 * 20;
#X obj 890 769 r \$0-min;
#X msg 255 335 0.5;
#X obj 596 57 vsl 15 128 0 1 0 0 empty empty empty 0 -9 0 10 -262144
-1 -1 6350 1;
#X floatatom 571 290 5 0 0 0 - - -;
#X floatatom 612 291 5 0 0 0 - - -;
#X obj 603 199 t b f;
#X obj 641 39 bng 15 250 50 0 empty empty empty 17 7 0 10 -262144 -1
-1;
#X obj 656 99 line;
#X obj 660 40 t b b;
#X msg 646 70 1;
#X msg 677 70 1000;
#X text 798 547 0db;
#X text 787 726 -20db;
#X msg 284 174 0.5;
#X obj 582 258 expr 0+($f1*0.87);
#X obj 571 234 expr 1-($f1*0.745);
#X floatatom 624 171 5 0 0 0 - - -;
#X obj 287 98 t b b;
#X msg 571 26 0.5;
#X connect 0 0 14 0;
#X connect 1 0 16 0;
#X connect 7 0 5 1;
#X connect 7 0 6 1;
#X connect 8 0 57 0;
#X connect 8 0 58 0;
#X connect 14 0 5 0;
#X connect 15 0 21 0;
#X connect 16 0 6 0;
#X connect 17 0 16 1;
#X connect 20 0 22 0;
#X connect 21 0 20 0;
#X connect 22 0 23 0;
#X connect 23 0 24 0;
#X connect 24 0 10 0;
#X connect 27 0 0 0;
#X connect 28 0 1 0;
#X connect 29 0 21 0;
#X connect 29 1 28 0;
#X connect 29 2 27 0;
#X connect 30 0 29 0;
#X connect 31 0 14 1;
#X connect 32 0 34 0;
#X connect 34 0 33 0;
#X connect 36 0 35 0;
#X connect 37 0 36 0;
#X connect 39 0 38 0;
#X connect 40 0 39 0;
#X connect 41 0 1 1;
#X connect 42 0 45 0;
#X connect 42 0 56 0;
#X connect 45 1 54 0;
#X connect 45 1 55 0;
#X connect 46 0 48 0;
#X connect 48 0 49 0;
#X connect 48 1 50 0;
#X connect 49 0 47 0;
#X connect 50 0 47 1;
#X connect 53 0 0 1;
#X connect 54 0 44 0;
#X connect 54 0 16 1;
#X connect 55 0 43 0;
#X connect 55 0 14 1;
#X connect 57 0 27 0;
#X connect 57 0 28 0;
#X connect 57 1 53 0;
#X connect 57 1 41 0;
#X connect 57 1 7 0;
#X connect 58 0 42 0;
